<svg xmlns="http://www.w3.org/2000/svg" viewBox="0 0 210.48 153.68"><defs><style>.cls-1{fill:#4a4a49;}</style></defs><g id="Ebene_2" data-name="Ebene 2"><g id="Calque_1" data-name="Calque 1"><path class="cls-1" d="M84.25,52.82A14.17,14.17,0,1,1,70.08,38.66,14.16,14.16,0,0,1,84.25,52.82Z"/><path class="cls-1" d="M137.36,35.41a17.71,17.71,0,0,1-17.71-17.7A17.7,17.7,0,1,0,102,35.41a17.71,17.71,0,0,1,0,35.41,17.71,17.71,0,1,0,17.7,17.71,17.71,17.71,0,0,1,17.71-17.71,17.71,17.71,0,1,0,0-35.41Z"/><path class="cls-1" d="M11,153.68a3.29,3.29,0,0,1-2.36-1.13,4.87,4.87,0,0,1-3.17,1.13H5.15C2.54,153.68,0,152.26,0,149v-.16c0-4.4,5-4.52,7.22-5a.53.53,0,0,0,.41-.6,2,2,0,0,0-2-2H5.37a2,2,0,0,0-2,1.22,1.42,1.42,0,0,1-1.32.91,1.52,1.52,0,0,1-1.44-2.13,5,5,0,0,1,4.8-3h.22a4.89,4.89,0,0,1,5.06,4.75v6.94c0,.47,0,.72.5.84a1.49,1.49,0,0,1,1.22,1.51A1.4,1.4,0,0,1,11,153.68Zm-3.33-7.13c-2.2.59-4.71.47-4.71,2.38,0,1,.82,1.79,2.23,1.79h.28a2.18,2.18,0,0,0,2.2-2.19Z"/><path class="cls-1" d="M32.28,153.68a1.42,1.42,0,0,1-1.47-1.48v-8.82a2.21,2.21,0,0,0-2.23-2.2H28.3a2.21,2.21,0,0,0-2.23,2.2v8.76a1.48,1.48,0,0,1-1.51,1.54,1.46,1.46,0,0,1-1.51-1.54v-8.76a2.21,2.21,0,0,0-2.23-2.2h-.28a2.21,2.21,0,0,0-2.23,2.2v8.82a1.43,1.43,0,0,1-1.51,1.48,1.45,1.45,0,0,1-1.51-1.48V139.7a1.46,1.46,0,0,1,1.51-1.51,1.47,1.47,0,0,1,1.51.82,3.24,3.24,0,0,1,2.23-.82h.28a5,5,0,0,1,3.74,1.54,5.2,5.2,0,0,1,3.74-1.54h.28c3.51,0,5.24,1.95,5.24,5.09v8.92A1.45,1.45,0,0,1,32.28,153.68Z"/><path class="cls-1" d="M47.83,153.68a3.29,3.29,0,0,1-2.36-1.13,4.87,4.87,0,0,1-3.17,1.13H42c-2.61,0-5.15-1.42-5.15-4.68v-.16c0-4.4,5-4.52,7.22-5a.53.53,0,0,0,.41-.6,2,2,0,0,0-2-2h-.22a2,2,0,0,0-2,1.22,1.42,1.42,0,0,1-1.32.91,1.52,1.52,0,0,1-1.44-2.13,5,5,0,0,1,4.8-3h.22a4.89,4.89,0,0,1,5.06,4.75v6.94c0,.47,0,.72.5.84a1.49,1.49,0,0,1,1.22,1.51A1.4,1.4,0,0,1,47.83,153.68Zm-3.33-7.13c-2.2.59-4.71.47-4.71,2.38,0,1,.82,1.79,2.23,1.79h.28a2.18,2.18,0,0,0,2.2-2.19Z"/><path class="cls-1" d="M61.33,153.68a1.44,1.44,0,0,1-1.5-1.48v-8.82a2.16,2.16,0,0,0-2.17-2.2h-.28a2.18,2.18,0,0,0-2.2,2.2v8.82a1.51,1.51,0,0,1-3,0V139.7a1.46,1.46,0,0,1,1.51-1.51,1.56,1.56,0,0,1,1.51.82,2.63,2.63,0,0,1,2.2-.82h.28a5,5,0,0,1,5.18,5.19v8.82A1.43,1.43,0,0,1,61.33,153.68Z"/><path class="cls-1" d="M71.73,153.68h-.25a5.07,5.07,0,0,1-5.21-5.06v-5.34a5.11,5.11,0,0,1,5.21-5.09h.25a5.11,5.11,0,0,1,5.21,5.09v5.34A5.07,5.07,0,0,1,71.73,153.68Zm2.2-10.4a2.11,2.11,0,0,0-2.2-2.1h-.25a2.1,2.1,0,0,0-2.2,2.1v5.34a2.1,2.1,0,0,0,2.2,2.1h.25a2.1,2.1,0,0,0,2.2-2.1Z"/><path class="cls-1" d="M89.35,153.68a1.35,1.35,0,0,1-1.23-.7l-2.76-4.42L82.6,153a1.35,1.35,0,0,1-1.23.7,1.49,1.49,0,0,1-1.54-1.45,1.42,1.42,0,0,1,.22-.81l3.55-5.69-3.26-5.21a1.17,1.17,0,0,1-.22-.82,1.53,1.53,0,0,1,1.53-1.51,1.46,1.46,0,0,1,1.23.76l2.48,4,2.48-4a1.45,1.45,0,0,1,1.23-.76,1.54,1.54,0,0,1,1.53,1.51,1.17,1.17,0,0,1-.22.82l-3.26,5.21,3.55,5.69a1.42,1.42,0,0,1,.22.81A1.49,1.49,0,0,1,89.35,153.68Z"/><path class="cls-1" d="M108.1,153.68h-.54a5.58,5.58,0,0,1-5-3.21,1.62,1.62,0,0,1-.16-.69,1.5,1.5,0,0,1,1.54-1.44c1.51,0,1.54,2.38,3.64,2.38h.54c1.76,0,2.45-.72,2.45-1.72,0-1.7-1.67-1.86-3-2.11-2.16-.41-4.89-1.32-4.89-4v-.53c0-3.11,3.39-4.18,5.4-4.18h.12c2.8,0,4.87,1.61,4.87,2.71a1.41,1.41,0,0,1-1.44,1.38c-1.2,0-1.45-1.1-3.43-1.1h-.12c-1.39,0-2.39.56-2.39,1.29v.31c0,2.26,7.85.38,7.85,6.22C113.56,152.58,110.42,153.68,108.1,153.68Z"/><path class="cls-1" d="M121.92,153.68h-.26a5.07,5.07,0,0,1-5.21-5.06v-5.34a5.12,5.12,0,0,1,5.21-5.09h.26a5.12,5.12,0,0,1,5.21,5.09v5.34A5.07,5.07,0,0,1,121.92,153.68Zm2.19-10.4a2.1,2.1,0,0,0-2.19-2.1h-.26a2.1,2.1,0,0,0-2.19,2.1v5.34a2.1,2.1,0,0,0,2.19,2.1h.26a2.1,2.1,0,0,0,2.19-2.1Z"/><path class="cls-1" d="M135.36,153.58c-2.77,0-4.27-1.51-4.27-4.27V133.14a1.45,1.45,0,0,1,1.5-1.51,1.47,1.47,0,0,1,1.51,1.48v16.2a1.28,1.28,0,0,0,1.26,1.32,1.45,1.45,0,0,1,1.51,1.48A1.43,1.43,0,0,1,135.36,153.58Z"/><path class="cls-1" d="M148.83,153.68a1.54,1.54,0,0,1-1.51-.79,2.59,2.59,0,0,1-2.2.79h-.28a5,5,0,0,1-5.18-5.15V139.7a1.45,1.45,0,0,1,1.51-1.51,1.47,1.47,0,0,1,1.51,1.51v8.83a2.15,2.15,0,0,0,2.16,2.19h.28a2.18,2.18,0,0,0,2.2-2.19V139.7a1.51,1.51,0,0,1,3,0v12.5A1.43,1.43,0,0,1,148.83,153.68Z"/><path class="cls-1" d="M159.54,153.58a4.23,4.23,0,0,1-4.27-4.27v-8h-.5a1.49,1.49,0,1,1,0-3h.5v-5.15a1.44,1.44,0,0,1,1.48-1.51,1.47,1.47,0,0,1,1.53,1.51v5.15h1.1a1.49,1.49,0,1,1,0,3h-1.1v8a1.41,1.41,0,0,0,1.26,1.32,1.44,1.44,0,0,1,1.51,1.48A1.43,1.43,0,0,1,159.54,153.58Z"/><path class="cls-1" d="M165.88,153.68a1.42,1.42,0,0,1-1.5-1.48V139.7a1.45,1.45,0,0,1,1.5-1.51,1.47,1.47,0,0,1,1.51,1.51v12.5A1.44,1.44,0,0,1,165.88,153.68Zm0-18.41a1.41,1.41,0,0,1-1.47-1.47v-.66a1.42,1.42,0,0,1,1.47-1.51,1.45,1.45,0,0,1,1.51,1.51v.66A1.44,1.44,0,0,1,165.88,135.27Z"/><path class="cls-1" d="M176.81,153.68h-.25a5.07,5.07,0,0,1-5.21-5.06v-5.34a5.11,5.11,0,0,1,5.21-5.09h.25a5.12,5.12,0,0,1,5.22,5.09v5.34A5.08,5.08,0,0,1,176.81,153.68Zm2.2-10.4a2.1,2.1,0,0,0-2.2-2.1h-.25a2.11,2.11,0,0,0-2.2,2.1v5.34a2.1,2.1,0,0,0,2.2,2.1h.25a2.1,2.1,0,0,0,2.2-2.1Z"/><path class="cls-1" d="M194.87,153.68a1.45,1.45,0,0,1-1.51-1.48v-8.82a2.15,2.15,0,0,0-2.16-2.2h-.29a2.18,2.18,0,0,0-2.19,2.2v8.82a1.51,1.51,0,0,1-3,0V139.7a1.46,1.46,0,0,1,1.51-1.51,1.57,1.57,0,0,1,1.51.82,2.6,2.6,0,0,1,2.19-.82h.29a5,5,0,0,1,5.18,5.19v8.82A1.43,1.43,0,0,1,194.87,153.68Z"/><path class="cls-1" d="M205,153.68h-.53a5.58,5.58,0,0,1-5-3.21,1.62,1.62,0,0,1-.16-.69,1.49,1.49,0,0,1,1.54-1.44c1.51,0,1.54,2.38,3.64,2.38H205c1.76,0,2.45-.72,2.45-1.72,0-1.7-1.66-1.86-3-2.11-2.16-.41-4.9-1.32-4.9-4v-.53c0-3.11,3.39-4.18,5.4-4.18h.13c2.8,0,4.87,1.61,4.87,2.71a1.41,1.41,0,0,1-1.45,1.38c-1.19,0-1.44-1.1-3.42-1.1H205c-1.38,0-2.38.56-2.38,1.29v.31c0,2.26,7.85.38,7.85,6.22C210.48,152.58,207.34,153.68,205,153.68Z"/></g></g></svg>